HIERARCHY
ROOT Hips
{
 OFFSET 0.000000 0.000000 0.000000
 CHANNELS 6 Xposition Yposition Zposition Yrotation Xrotation Zrotation
 JOINT Chest
 {
  OFFSET 0.000000 9.585900 0.002600
  CHANNELS 3 Yrotation Xrotation Zrotation
  JOINT Chest2
  {
   OFFSET 0.000000 9.601200 -0.005300
   CHANNELS 3 Yrotation Xrotation Zrotation
   JOINT Chest3
   {
    OFFSET 0.000000 9.561800 0.000000
    CHANNELS 3 Yrotation Xrotation Zrotation
    JOINT Chest4
    {
     OFFSET 0.000000 9.552100 0.000000
     CHANNELS 3 Yrotation Xrotation Zrotation
     JOINT Neck
     {
      OFFSET 0.000000 14.453000 0.000000
      CHANNELS 3 Yrotation Xrotation Zrotation
      JOINT Head
      {
       OFFSET 0.000000 8.936500 -0.011300
       CHANNELS 3 Yrotation Xrotation Zrotation
       End Site
       {
        OFFSET 0.000000 17.073600 -0.006000
       }
      }
     }
     JOINT RightCollar
     {
      OFFSET -2.921100 9.558500 0.000000
      CHANNELS 3 Yrotation Xrotation Zrotation
      JOINT RightShoulder
      {
       OFFSET -13.519700 0.000000 0.000000
       CHANNELS 3 Yrotation Xrotation Zrotation
       JOINT RightElbow
       {
        OFFSET 0.000000 -29.696600 0.000000
        CHANNELS 3 Yrotation Xrotation Zrotation
        JOINT RightWrist
        {
         OFFSET 0.000000 -24.004700 0.000000
         CHANNELS 3 Yrotation Xrotation Zrotation
         End Site
         {
          OFFSET 0.000000 -17.728500 0.000000
         }
        }
       }
      }
     }
     JOINT LeftCollar
     {
      OFFSET 2.921100 9.558500 0.000000
      CHANNELS 3 Yrotation Xrotation Zrotation
      JOINT LeftShoulder
      {
       OFFSET 13.519700 0.000000 0.000000
       CHANNELS 3 Yrotation Xrotation Zrotation
       JOINT LeftElbow
       {
        OFFSET 0.000000 -29.696600 0.000000
        CHANNELS 3 Yrotation Xrotation Zrotation
        JOINT LeftWrist
        {
         OFFSET 0.000000 -24.004700 0.000000
         CHANNELS 3 Yrotation Xrotation Zrotation
         End Site
         {
          OFFSET 0.000000 -17.728500 0.000000
         }
        }
       }
      }
     }
    }
   }
  }
 }
 JOINT RightHip
 {
  OFFSET -7.771700 -0.012900 -0.001300
  CHANNELS 3 Yrotation Xrotation Zrotation
  JOINT RightKnee
  {
   OFFSET 0.000000 -40.869800 0.001200
   CHANNELS 3 Yrotation Xrotation Zrotation
   JOINT RightAnkle
   {
    OFFSET 0.000000 -39.717900 0.002100
    CHANNELS 3 Yrotation Xrotation Zrotation
    JOINT RightToe
    {
     OFFSET 0.000000 -4.965400 11.033500
     CHANNELS 3 Yrotation Xrotation Zrotation
     End Site
     {
      OFFSET 0.000000 -1.423100 5.872300
     }
    }
   }
  }
 }
 JOINT LeftHip
 {
  OFFSET 7.771700 -0.012900 -0.001300
  CHANNELS 3 Yrotation Xrotation Zrotation
  JOINT LeftKnee
  {
   OFFSET 0.000000 -40.869800 0.001200
   CHANNELS 3 Yrotation Xrotation Zrotation
   JOINT LeftAnkle
   {
    OFFSET 0.000000 -39.717900 0.002100
    CHANNELS 3 Yrotation Xrotation Zrotation
    JOINT LeftToe
    {
     OFFSET 0.000000 -4.965400 11.033500
     CHANNELS 3 Yrotation Xrotation Zrotation
     End Site
     {
      OFFSET 0.000000 -1.423100 5.872300
     }
    }
   }
  }
 }
}
MOTION
Frames: 5
Frame Time: 0.008333
-180.224579 48.761159 13.489900 178.112228 -33.552022 -5.121007 0.550601 19.342084 2.799565 0.016028 2.337609 0.324813 0.033508 3.847313 0.535321 0.420483 16.719188 2.399654 4.856304 13.986874 -3.191501 10.365144 -9.353688 -7.871295 -2.108527 -2.083838 -1.468796 3.113667 -11.652220 -14.645503 -34.670569 -56.441052 80.953643 5.373303 6.943363 -20.798156 -5.251325 -1.696074 1.350957 -7.509545 -24.795590 27.995775 31.197073 -81.756615 -61.888956 0.700851 10.640456 1.971854 -1.163384 -50.335022 -5.569925 -150.607175 79.429130 -138.879018 -29.866801 -7.105430 -0.351406 -0.088245 -8.195740 1.794712 -14.902560 -53.062990 20.151799 -71.343814 64.523278 -77.215695 31.037814 9.180366 16.208484 -0.048314 0.092242 -0.109689
-180.212265 48.770470 13.476999 177.994174 -33.521494 -5.092904 0.516923 19.350272 2.734397 0.013546 2.337108 0.318331 0.029281 3.846671 0.524627 0.396555 16.721996 2.350643 4.868535 13.928443 -3.157781 10.381831 -9.464428 -7.819456 -2.049032 -2.074682 -1.454551 3.029560 -11.708311 -14.653522 -34.505762 -56.121566 80.835606 5.313511 6.894922 -20.770655 -5.087705 -1.566791 1.308519 -7.116881 -24.207862 26.907904 30.335261 -81.753993 -60.989583 0.609615 10.637961 1.671100 -1.382059 -50.347549 -5.568727 -150.604293 79.484697 -138.823357 -29.883669 -6.988507 -0.456320 -0.104207 -8.465106 1.766426 -14.923054 -53.069397 20.274455 -71.400615 64.517647 -77.301598 31.029043 9.124105 16.206332 -0.038458 0.105690 -0.125823
-180.197063 48.781267 13.461601 177.826402 -33.515850 -5.065730 0.528851 19.381191 2.694518 0.012839 2.337150 0.312681 0.028034 3.846820 0.515266 0.386415 16.725521 2.308904 4.884351 13.873373 -3.126628 10.405705 -9.568179 -7.773366 -1.997274 -2.074975 -1.441519 2.939150 -11.747259 -14.656179 -34.358262 -55.820439 80.734926 5.260255 6.842389 -20.744265 -4.920630 -1.471972 1.281950 -6.705121 -23.617364 25.813372 29.548690 -81.741740 -60.189736 0.520653 10.642170 1.414916 -1.578767 -50.352282 -5.507981 -150.701971 79.559156 -138.871166 -29.913051 -6.843315 -0.573473 -0.117585 -8.734455 1.737770 -14.914594 -53.051802 20.426676 -71.563681 64.507634 -77.485283 31.015677 9.017508 16.180679 -0.026551 0.119047 -0.114633
-180.185988 48.786777 13.452507 177.675213 -33.463571 -5.036291 0.513788 19.368307 2.639180 0.013504 2.337264 0.307586 0.029039 3.847006 0.506842 0.386714 16.728678 2.272371 4.903654 13.823361 -3.096321 10.435931 -9.661983 -7.729636 -1.949496 -2.082302 -1.427983 2.856534 -11.769439 -14.656243 -34.233173 -55.553186 80.644410 5.211723 6.790645 -20.751714 -4.752026 -1.410765 1.270211 -6.275971 -23.013996 24.717000 28.882800 -81.723699 -59.535493 0.440036 10.655759 1.224624 -1.764429 -50.417161 -5.451165 -150.934575 79.655709 -139.056334 -29.960471 -6.676144 -0.701659 -0.121967 -8.998418 1.709753 -14.904861 -53.087405 20.564345 -71.593229 64.499484 -77.528614 31.021859 9.001368 16.181111 -0.034972 0.092259 -0.098674
-180.172587 48.791356 13.444467 177.507057 -33.409658 -5.021707 0.517438 19.351556 2.607372 0.015423 2.336872 0.302846 0.031996 3.846451 0.499092 0.396253 16.729910 2.239868 4.924722 13.781062 -3.064703 10.468070 -9.741576 -7.683278 -1.908956 -2.093107 -1.410338 2.796866 -11.772809 -14.655381 -34.134899 -55.329823 80.555208 5.166521 6.746058 -20.804692 -4.587391 -1.378579 1.271737 -5.837107 -22.385962 23.625261 28.352263 -81.702084 -59.034062 0.373572 10.677041 1.110082 -1.954215 -50.496803 -5.341550 -151.285680 79.765473 -139.361575 -30.002925 -6.494425 -0.831146 -0.076605 -9.246702 1.654756 -14.883996 -53.125315 20.724165 -71.642915 64.486827 -77.573037 31.007232 8.974396 16.191908 -0.029555 0.064662 -0.077080
